<svg width="654" height="224" viewBox="0 0 654 224" fill="none" xmlns="http://www.w3.org/2000/svg">
<rect width="654" height="224" fill="#3F3D56"/>
<path d="M147.792 66.8V68.528H156.612V92H158.556V68.528H167.376V66.8H147.792ZM188.828 73.892C188.828 69.356 185.372 66.8 180.98 66.8H171.116V92H173.06V80.984H179.9L185.804 92H188.108L182.024 80.948C185.912 80.552 188.828 78.068 188.828 73.892ZM173.06 68.528H180.764C184.652 68.528 186.884 70.472 186.884 73.892C186.884 77.312 184.652 79.256 180.764 79.256H173.06V68.528ZM193.085 66.8V83.828C193.085 89.768 196.757 92.504 202.013 92.504C207.269 92.504 210.941 89.768 210.941 83.828V66.8H208.997V83.828C208.997 88.544 206.405 90.776 202.013 90.776C197.621 90.776 195.029 88.544 195.029 83.828V66.8H193.085ZM224.922 66.296C220.026 66.296 216.57 68.852 216.57 72.884C216.57 76.916 219.45 78.644 223.374 79.616L225.894 80.228C229.35 81.056 231.834 82.208 231.834 85.376C231.834 88.544 229.242 90.776 224.922 90.776C220.602 90.776 217.506 88.544 217.506 83.432V83.216H215.562V83.432C215.562 89.696 219.594 92.504 224.922 92.504C230.25 92.504 233.778 89.696 233.778 85.376C233.778 81.056 230.574 79.508 226.758 78.572L224.238 77.96C220.71 77.096 218.514 76.124 218.514 72.884C218.514 69.716 221.25 68.024 224.922 68.024C228.738 68.024 231.762 69.716 231.762 73.82V75.368H233.706V73.82C233.706 68.852 229.818 66.296 224.922 66.296ZM236.315 66.8V68.528H245.135V92H247.079V68.528H255.899V66.8H236.315ZM259.64 66.8V92H275.191V90.272H261.584V80.228H274.04V78.5H261.584V68.528H275.048V66.8H259.64ZM279.854 66.8V92H286.766C293.318 92 297.206 88.76 297.206 81.668V77.132C297.206 70.04 293.318 66.8 286.766 66.8H279.854ZM281.798 68.528H286.766C292.202 68.528 295.262 71.048 295.262 77.024V81.776C295.262 87.752 292.346 90.272 286.766 90.272H281.798V68.528ZM314.343 66.8V92H316.287V68.924H316.647L325.539 92H328.347L337.239 68.924H337.599V92H339.543V66.8H336.051L327.123 89.984H326.763L317.835 66.8H314.343ZM345.456 66.8V92H361.008V90.272H347.4V80.228H359.856V78.5H347.4V68.528H360.864V66.8H345.456ZM365.671 66.8V92H367.615V68.924H367.975L376.867 92H379.675L388.567 68.924H388.927V92H390.871V66.8H387.379L378.451 89.984H378.091L369.163 66.8H365.671ZM396.784 66.8V92H406.576C410.896 92 414.136 89.588 414.136 85.34C414.136 81.848 411.76 80.048 409.78 79.508V79.148C411.688 78.536 414.136 76.844 414.136 73.316C414.136 69.284 410.932 66.8 406.72 66.8H396.784ZM398.728 68.528H406.576C410.032 68.528 412.192 70.544 412.192 73.388C412.192 76.34 410.176 78.464 406.648 78.464H398.728V68.528ZM398.728 80.192H406.432C410.248 80.192 412.192 82.172 412.192 85.196C412.192 88.076 410.248 90.272 406.648 90.272H398.728V80.192ZM419.179 66.8V92H434.731V90.272H421.123V80.228H433.579V78.5H421.123V68.528H434.587V66.8H419.179ZM457.105 73.892C457.105 69.356 453.649 66.8 449.257 66.8H439.393V92H441.337V80.984H448.177L454.081 92H456.385L450.301 80.948C454.189 80.552 457.105 78.068 457.105 73.892ZM441.337 68.528H449.041C452.929 68.528 455.161 70.472 455.161 73.892C455.161 77.312 452.929 79.256 449.041 79.256H441.337V68.528ZM472.742 76.592V82.208C472.742 88.976 476.486 92.504 482.318 92.504C488.15 92.504 491.894 88.976 491.894 82.208V76.592C491.894 69.824 488.15 66.296 482.318 66.296C476.486 66.296 472.742 69.824 472.742 76.592ZM474.686 76.448C474.686 71.192 477.494 68.024 482.318 68.024C487.142 68.024 489.95 71.192 489.95 76.448V82.352C489.95 87.608 487.142 90.776 482.318 90.776C477.494 90.776 474.686 87.608 474.686 82.352V76.448ZM497.155 66.8V92H499.099V80.228H511.555V78.5H499.099V68.528H512.275V66.8H497.155ZM526.249 66.8V68.528H535.069V92H537.013V68.528H545.833V66.8H526.249ZM549.573 66.8V92H551.517V80.228H564.765V92H566.709V66.8H564.765V78.5H551.517V66.8H549.573ZM572.6 66.8V92H588.152V90.272H574.544V80.228H587V78.5H574.544V68.528H588.008V66.8H572.6Z" fill="white"/>
<path d="M160.56 113L147.6 155H153.72L156.84 144.8H173.4L176.52 155H182.7L169.74 113H160.56ZM158.34 139.4L164.82 118.16H165.42L171.9 139.4H158.34ZM187.648 113V155H193.468V119.18H194.068L205.588 155H213.988L225.448 119.18H226.048V155H231.868V113H221.608L210.088 148.94H209.488L197.908 113H187.648ZM240.271 113V155H246.211V138.56H256.711C264.271 138.56 269.971 133.7 269.971 125.78C269.971 117.92 264.391 113 256.711 113H240.271ZM246.211 118.34H256.111C261.031 118.34 264.031 121.16 264.031 125.78C264.031 130.4 261.031 133.22 256.111 133.22H246.211V118.34ZM275.609 113V155H302.489V149.66H281.549V113H275.609ZM307.782 113V155H313.722V113H307.782ZM322.143 113V155H328.083V136.64H347.043V131.24H328.083V118.34H348.243V113H322.143ZM350.6 113L365.6 139.34V155H371.54V139.34L386.54 113H379.76L368.9 132.86H368.3L357.38 113H350.6ZM422.254 125.6C422.254 117.8 416.674 113 408.994 113H391.354V155H397.294V138.2H406.114L414.694 155H421.474L412.294 137.9C418.114 136.7 422.254 132.2 422.254 125.6ZM397.294 118.34H408.394C413.314 118.34 416.314 121.1 416.314 125.6C416.314 130.16 413.314 132.92 408.394 132.92H397.294V118.34ZM428.508 113V155H455.628V149.66H434.448V136.58H453.648V131.18H434.448V118.34H455.328V113H428.508Z" fill="white"/>
<path d="M480.082 113V155H486.022V136.64H504.502V155H510.442V113H504.502V131.24H486.022V113H480.082ZM518.578 113V140.72C518.578 150.44 524.698 155.84 534.358 155.84C544.018 155.84 550.138 150.44 550.138 140.72V113H544.198V140.84C544.198 147.14 540.658 150.56 534.358 150.56C528.058 150.56 524.518 147.14 524.518 140.84V113H518.578ZM558.315 113V155H576.315C583.515 155 588.795 150.8 588.795 143.72C588.795 137.66 584.715 135.02 581.595 134.12V133.52C584.715 132.62 588.615 130.04 588.615 124.04C588.615 117.26 583.455 113 576.255 113H558.315ZM564.255 118.34H575.655C580.035 118.34 582.915 120.92 582.915 124.7C582.915 128.6 580.155 131.18 575.715 131.18H564.255V118.34ZM564.255 136.58H575.655C580.335 136.58 583.035 139.04 583.035 143.06C583.035 146.96 580.335 149.66 575.775 149.66H564.255V136.58Z" fill="#1AD4AB"/>
<path fill-rule="evenodd" clip-rule="evenodd" d="M116.567 69.8696C116.567 68.2848 117.852 67 119.437 67C121.021 67 122.306 68.2848 122.306 69.8696V97.8783C122.306 99.4631 121.021 100.748 119.437 100.748C117.852 100.748 116.567 99.4631 116.567 97.8783V69.8696ZM103.654 75.7384C103.654 74.1536 104.938 72.8688 106.523 72.8688C108.108 72.8688 109.393 74.1536 109.393 75.7384V106.682C109.393 108.267 108.108 109.551 106.523 109.551C104.938 109.551 103.654 108.267 103.654 106.682V75.7384ZM90.7402 81.6062C90.7402 80.0213 92.025 78.7365 93.6098 78.7365C95.1947 78.7365 96.4794 80.0213 96.4794 81.6062V100.811C96.4794 102.396 95.1947 103.681 93.6098 103.681C92.025 103.681 90.7402 102.396 90.7402 100.811V81.6062ZM77.826 87.4793C77.826 85.8944 79.1108 84.6097 80.6956 84.6097C82.2805 84.6097 83.5652 85.8944 83.5652 87.4793V109.619C83.5652 111.204 82.2805 112.488 80.6956 112.488C79.1108 112.488 77.826 111.204 77.826 109.619V87.4793ZM67.783 90.4767C66.1982 90.4767 64.9134 91.7615 64.9134 93.3463V102.28C64.9134 103.865 66.1982 105.15 67.783 105.15C69.3679 105.15 70.6526 103.865 70.6526 102.28V93.3463C70.6526 91.7615 69.3679 90.4767 67.783 90.4767ZM67.783 112.486C66.1982 112.486 64.9134 113.771 64.9134 115.356V128.692C64.9134 130.277 66.1982 131.561 67.783 131.561C69.3679 131.561 70.6526 130.277 70.6526 128.692V115.356C70.6526 113.771 69.3679 112.486 67.783 112.486ZM80.6956 121.289C79.1108 121.289 77.826 122.574 77.826 124.159V134.56C77.826 136.144 79.1108 137.429 80.6956 137.429C82.2805 137.429 83.5652 136.144 83.5652 134.56V124.159C83.5652 122.574 82.2805 121.289 80.6956 121.289ZM93.6098 112.486C92.025 112.486 90.7402 113.771 90.7402 115.356V140.43C90.7402 142.015 92.025 143.3 93.6098 143.3C95.1947 143.3 96.4794 142.015 96.4794 140.43V115.356C96.4794 113.771 95.1947 112.486 93.6098 112.486ZM106.523 118.356C104.938 118.356 103.654 119.641 103.654 121.226V146.3C103.654 147.885 104.938 149.17 106.523 149.17C108.108 149.17 109.393 147.885 109.393 146.3V121.226C109.393 119.641 108.108 118.356 106.523 118.356ZM119.437 109.552C117.852 109.552 116.567 110.836 116.567 112.421V152.168C116.567 153.753 117.852 155.038 119.437 155.038C121.021 155.038 122.306 153.753 122.306 152.168V112.421C122.306 110.836 121.021 109.552 119.437 109.552ZM52 99.2152C52 97.6303 53.2848 96.3456 54.8696 96.3456C56.4545 96.3456 57.7393 97.6303 57.7393 99.2152V108.149C57.7393 109.734 56.4545 111.019 54.8696 111.019C53.2848 111.019 52 109.734 52 108.149V99.2152ZM54.8696 116.888C53.2848 116.888 52 118.173 52 119.757V122.822C52 124.407 53.2848 125.692 54.8696 125.692C56.4545 125.692 57.7393 124.407 57.7393 122.822V119.757C57.7393 118.173 56.4545 116.888 54.8696 116.888Z" fill="white"/>
</svg>
