<svg width="43" height="64" viewBox="0 0 43 64" fill="none" xmlns="http://www.w3.org/2000/svg">
<path d="M36.845 44.78C36.895 44.03 36.655 43.33 36.165 42.8C35.675 42.27 34.985 41.97 34.245 41.97H8.34501C7.59501 41.97 6.91501 42.26 6.41501 42.8C5.92501 43.33 5.68501 44.04 5.73501 44.78L6.77501 58.2C6.81501 58.71 7.005 59.19 7.295 59.6C6.475 59.88 5.87501 60.64 5.87501 61.55C5.87501 62.7 6.805 63.63 7.965 63.63H34.605C35.755 63.63 36.695 62.7 36.695 61.55C36.695 60.64 36.095 59.88 35.275 59.6C35.555 59.19 35.755 58.71 35.795 58.2L36.845 44.78ZM34.615 62.2H7.975C7.615 62.2 7.325 61.91 7.325 61.55C7.325 61.19 7.615 60.9 7.975 60.9H34.615C34.975 60.9 35.265 61.19 35.265 61.55C35.265 61.91 34.975 62.2 34.615 62.2ZM34.365 58.08C34.305 58.83 33.625 59.46 32.875 59.46H9.70501C8.95501 59.46 8.275 58.83 8.215 58.08L7.16501 44.67C7.13501 44.33 7.245 44.01 7.465 43.77C7.685 43.53 7.99501 43.4 8.33501 43.4H34.235C34.575 43.4 34.885 43.53 35.105 43.77C35.325 44.01 35.435 44.33 35.405 44.67L34.365 58.08Z" fill="black"/>
<path d="M11.0447 21.51C12.6847 27.29 18.2347 31.44 21.2947 31.44C24.3547 31.44 29.9047 27.29 31.5447 21.51C32.9347 20.95 33.8747 19.6 33.8747 18.09V16.64C33.8747 15.6 33.4147 14.63 32.6447 13.94C32.7847 13.38 32.9147 12.76 33.0347 12.08L33.0747 11.87C33.4247 9.9 34.0747 6.22 31.7247 3.43C29.8147 1.16 26.3047 0 21.2947 0C16.2847 0 12.7747 1.15 10.8647 3.43C8.52469 6.22 9.17469 9.89 9.52469 11.87L9.56468 12.08C9.68468 12.76 9.81469 13.38 9.95469 13.94C9.18469 14.63 8.72469 15.6 8.72469 16.64V18.09C8.71469 19.6 9.65469 20.95 11.0447 21.51ZM11.9547 4.34C13.5847 2.4 16.7147 1.42 21.2947 1.42C25.8647 1.42 29.0047 2.4 30.6247 4.34C32.5347 6.62 31.9847 9.74 31.6547 11.61L31.6147 11.83C31.2747 13.74 30.8347 15.19 30.5447 16.01V15.69C30.5447 10.01 28.7147 9.16 27.6247 9.16C27.0347 9.16 26.4047 9.42 25.7647 9.92C24.1847 11.15 22.9147 11.31 21.9847 11.31L21.2947 11.29L20.6047 11.3C19.6747 11.3 18.4047 11.14 16.8247 9.91C16.1847 9.41 15.5547 9.15 14.9647 9.15C13.8747 9.15 12.0447 10 12.0447 15.68C12.0447 15.79 12.0447 15.9 12.0447 16C11.7647 15.22 11.3147 13.76 10.9747 11.82L10.9347 11.61C10.6047 9.75 10.0447 6.62 11.9547 4.34ZM27.1047 14.52H24.3447C23.6847 14.52 23.0847 14.8 22.6147 15.25H19.9647C19.4947 14.8 18.8947 14.52 18.2347 14.52H15.4847C14.6847 14.52 13.9847 14.92 13.4747 15.54C13.4947 12.14 14.2547 10.59 14.9647 10.59C15.2247 10.59 15.5647 10.75 15.9447 11.04C17.8647 12.54 19.4447 12.74 20.6047 12.74L21.2947 12.72L21.9847 12.73C23.1447 12.73 24.7247 12.54 26.6447 11.03C27.0247 10.74 27.3647 10.58 27.6247 10.58C28.3347 10.58 29.0847 12.14 29.1047 15.53C28.6147 14.92 27.9047 14.52 27.1047 14.52ZM28.4147 17.66C28.4147 18.6 27.8347 19.37 27.1147 19.37H24.3547C23.6547 19.37 23.0547 18.59 23.0547 17.66C23.0547 16.73 23.6547 15.95 24.3547 15.95H27.1147C27.8247 15.95 28.4147 16.72 28.4147 17.66ZM19.5447 17.66C19.5447 18.6 18.9647 19.37 18.2447 19.37H15.4947C14.7747 19.37 14.1847 18.6 14.1847 17.66C14.1847 16.72 14.7747 15.95 15.4947 15.95H18.2447C18.9547 15.95 19.5447 16.72 19.5447 17.66ZM10.1447 16.63C10.1447 16.27 10.2347 15.92 10.3947 15.61C10.6847 16.56 10.9147 17.1 10.9247 17.1C11.3647 18.93 11.6647 19.7 12.3947 19.7C12.7347 19.7 12.9747 19.57 13.1247 19.25C13.6047 20.18 14.4747 20.81 15.4747 20.81H18.2247C19.7347 20.81 20.9647 19.4 20.9647 17.66C20.9647 17.31 20.9047 16.99 20.8147 16.68H21.7547C21.6647 16.99 21.6047 17.32 21.6047 17.66C21.6047 19.39 22.8347 20.81 24.3347 20.81H27.0947C28.0947 20.81 28.9647 20.18 29.4447 19.25C29.6047 19.57 29.8447 19.7 30.1847 19.7C30.9147 19.7 31.2147 18.93 31.6147 17.21C31.6347 17.17 31.8747 16.59 32.1747 15.61C32.3347 15.92 32.4247 16.27 32.4247 16.63V18.08C32.4247 19.09 31.7347 19.99 30.7547 20.25C30.5047 20.32 30.3047 20.52 30.2447 20.77C28.8847 26.19 23.6147 29.99 21.2847 29.99C18.9447 29.99 13.6847 26.19 12.3247 20.77C12.2647 20.52 12.0647 20.32 11.8147 20.25C10.8247 19.98 10.1347 19.09 10.1347 18.08L10.1447 16.63Z" fill="black"/>
<path d="M42.335 49.26C42.275 48.89 40.725 40.3 39.415 36.8C38.015 33.07 28.915 30.8 27.885 30.55C27.585 30.47 27.245 30.61 27.095 30.9C25.615 33.53 22.345 35.6 21.285 36.23C20.225 35.6 16.965 33.53 15.475 30.9C15.315 30.62 14.985 30.48 14.685 30.55C13.655 30.8 4.55502 33.07 3.15502 36.8C1.83502 40.3 0.295022 48.89 0.235022 49.23C0.195022 49.39 -0.614977 53.14 1.02502 55.48C1.88502 56.71 3.34502 57.65 5.07502 58.17L4.95503 56.64C3.92503 56.25 2.86502 55.61 2.19502 54.66C0.925025 52.84 1.62502 49.58 1.63502 49.51C1.65502 49.42 3.21503 40.68 4.48503 37.3C5.39503 34.89 11.605 32.82 14.505 32.06C16.605 35.32 20.745 37.57 20.935 37.67C21.145 37.79 21.405 37.79 21.615 37.67C21.795 37.57 25.945 35.31 28.045 32.06C30.945 32.82 37.155 34.88 38.055 37.3C39.325 40.67 40.895 49.42 40.915 49.53C40.925 49.57 41.625 52.82 40.355 54.64C39.685 55.6 38.625 56.23 37.595 56.63L37.475 58.17C39.175 57.66 40.655 56.71 41.535 55.46C43.185 53.13 42.365 49.39 42.335 49.26Z" fill="black"/>
</svg>
