<svg width="59" height="48" viewBox="0 0 59 48" fill="none" xmlns="http://www.w3.org/2000/svg">
<path d="M56.12 0H2.42C1.08 0 0 1.16 0 2.51V38.22C0 39.56 1.07 40.73 2.51 40.73H21.93L18.53 45.83H14.95V47.17H43.86V45.83H40.28L36.88 40.73H56.3C57.64 40.73 58.81 39.66 58.81 38.22V2.51C58.63 1.17 57.47 0 56.12 0ZM2.43 1.35H56.13C56.76 1.35 57.29 1.89 57.29 2.51V34.28H1.35V2.51C1.35 1.88 1.8 1.35 2.43 1.35ZM38.49 45.74H20.06L23.46 40.64H35.09L38.49 45.74ZM56.12 39.29H2.42C1.79 39.29 1.35 38.75 1.35 38.13V35.62H57.29V38.22C57.29 38.85 56.75 39.29 56.12 39.29Z" fill="#1F1F1F"/>
<path d="M33.36 7.41998L25.46 30.13" stroke="#1F1F1F" stroke-width="1.457" stroke-miterlimit="10" stroke-linecap="round" stroke-linejoin="round"/>
<path d="M23.7102 22.79L16.7002 18.41L23.7102 14.02" stroke="#1F1F1F" stroke-width="1.3863" stroke-miterlimit="10" stroke-linecap="round" stroke-linejoin="round"/>
<path d="M35.1104 14.02L42.1204 18.41L35.1104 22.79" stroke="#1F1F1F" stroke-width="1.3863" stroke-miterlimit="10" stroke-linecap="round" stroke-linejoin="round"/>
</svg>
