<svg width="52" height="52" viewBox="0 0 52 52" fill="none" xmlns="http://www.w3.org/2000/svg">
<path fill-rule="evenodd" clip-rule="evenodd" d="M51.4818 16.0727H42.2664C42.1137 15.7847 41.8402 15.4866 41.6904 15.2087C41.6429 15.0168 41.5939 14.8247 41.5464 14.6328C41.4499 14.5848 41.3549 14.5367 41.2584 14.4888C41.2109 14.2969 41.162 14.1048 41.1144 13.9128C41.018 13.8649 40.9229 13.8168 40.8265 13.7688V13.4809C40.73 13.4329 40.635 13.3848 40.5385 13.3369V13.0489L39.6745 12.3289L38.3786 10.889H38.0906C37.9942 10.745 37.8991 10.601 37.8027 10.457L37.2267 10.3131C37.1792 10.217 37.1302 10.1211 37.0827 10.0251L36.5067 9.88108V9.73709L35.6428 9.44911V9.30512H35.2108V9.16113H34.9228V9.01714L31.1791 8.15319H29.8832C28.2244 7.69156 24.3438 8.0272 22.9716 8.44118L21.5317 8.58517V8.72916H20.9557V8.87315H20.5238V9.01714H20.0918V9.16113H19.6598V9.30512L18.7959 9.44911V9.5931L17.9319 9.88108V10.0251H17.6439V10.1691L16.78 10.457C16.7325 10.5531 16.6835 10.649 16.636 10.745L16.06 10.889C16.0125 10.9851 15.9636 11.081 15.916 11.177L15.4841 11.321C15.3876 11.465 15.2926 11.609 15.1961 11.753H14.9081L13.6122 13.1929L12.7482 13.9128V14.2008L12.3163 14.4888V14.7768C12.2198 14.8247 12.1248 14.8728 12.0283 14.9208C11.9808 15.0648 11.9318 15.2087 11.8843 15.3527H11.7403C11.6928 15.5447 11.6438 15.7368 11.5963 15.9287C11.4998 15.9766 11.4048 16.0247 11.3083 16.0727C11.2608 16.2646 11.2119 16.4567 11.1643 16.6487H11.0204C10.9728 16.8406 10.9239 17.0327 10.8764 17.2246H10.7324V17.6566C9.84683 19.6848 9.29247 21.7323 9.29247 24.7121V27.16H9.43646V28.3119H9.58045V29.0319H9.72444V29.7518H9.86843V30.3278H10.0124V30.7598H10.1564V31.3357H10.3004V31.6237H10.4444C10.4919 31.9117 10.5409 32.1997 10.5884 32.4876H10.7324C10.8288 32.7756 10.9239 33.0636 11.0204 33.3516H11.1643V33.6396H11.3083C11.3559 33.8315 11.4048 34.0236 11.4523 34.2155C11.5488 34.2635 11.6438 34.3116 11.7403 34.3595C11.7878 34.5515 11.8368 34.7436 11.8843 34.9355C11.9808 34.9834 12.0758 35.0315 12.1723 35.0795V35.3675L12.6043 35.6554V35.9434C13.0837 36.3754 13.5637 36.8074 14.0442 37.2393C14.3797 37.6233 14.7156 38.0073 15.0521 38.3913H15.3401C15.3876 38.4873 15.4366 38.5832 15.4841 38.6793H15.7721C15.8685 38.8232 15.9636 38.9672 16.06 39.1112L16.636 39.2552C16.6835 39.3513 16.7325 39.4472 16.78 39.5432H17.068V39.6872H17.356V39.8312H17.6439V39.9752H17.9319V40.1192H18.2199V40.2632L18.7959 40.4071V40.5511L19.6598 40.6951V40.8391H20.0918V40.9831H20.5238V41.1271H20.9557V41.2711H21.5317V41.4151H22.2516C23.6426 41.8396 26.9918 42.3359 28.7312 41.847H30.3151V41.7031H31.3231V41.5591H32.043V41.4151H32.763V41.2711H33.3389V41.1271H33.9149V40.9831H34.3469V40.8391H34.7788V40.6951H35.0668V40.5511H35.4988V40.4071L36.3627 40.1192V39.9752H36.6507V39.8312L37.2267 39.6872C37.2742 39.5911 37.3232 39.4952 37.3707 39.3992H37.8027V39.2552L38.9546 39.3992V47.7507C38.4261 47.9427 37.8982 48.1347 37.3707 48.3266V48.4706L36.5067 48.6146V48.7586H36.0748V48.9026H35.6428V49.0466L34.6349 49.1906V49.3346C33.2425 49.5746 31.8506 49.8145 30.4591 50.0545H28.4432V50.1985C27.7723 50.3857 25.1804 50.1894 24.6995 50.0545H23.1156V49.9105H21.8197V49.7665H20.9557V49.6226L19.3718 49.4786L15.3401 48.3266V48.1826H15.0521V48.0387L14.1882 47.8947C9.38894 45.7845 5.76469 42.6427 3.10086 38.3913C3.05334 38.1993 3.00439 38.0072 2.95687 37.8153H2.81288V37.5273H2.66889C2.57241 37.2393 2.47738 36.9514 2.3809 36.6634H2.23691V36.2314H2.09292V35.9434H1.94893V35.5115H1.80494V35.2235H1.66095V34.7915H1.51696V34.3595H1.37297V33.9276H1.22898V33.4956H1.08499C1.03747 33.0636 0.988513 32.6316 0.940996 32.1997H0.797005V31.7677H0.653015V30.9037H0.509024V30.0398H0.365033C0.317516 29.0799 0.269519 28.1199 0.221042 27.16H0.0770513C-0.110137 26.488 0.0856907 23.8976 0.221042 23.4162V21.5443H0.365033V20.5364H0.509024V19.6725H0.653015V18.9525C0.988513 17.7526 1.32449 16.5527 1.66095 15.3527H1.80494C1.85246 15.1127 1.90142 14.8728 1.94893 14.6328H2.09292V14.3448H2.23691V13.9128C2.95687 12.6169 3.67682 11.321 4.39678 10.0251C4.49325 9.97713 4.58828 9.92903 4.68476 9.88108V9.5931L5.11673 9.30512V9.01714C5.3572 8.8252 5.59622 8.63312 5.83668 8.44118V8.15319C6.31617 7.72122 6.79614 7.28925 7.27659 6.85728C7.51706 6.56929 7.75608 6.28131 7.99655 5.99333H8.28453C8.47604 5.7533 8.66899 5.51341 8.86049 5.27338H9.14847C9.24495 5.12939 9.33998 4.9854 9.43646 4.8414L9.86843 4.69741C9.91595 4.60137 9.9649 4.50547 10.0124 4.40943L10.5884 4.26544C10.6359 4.1694 10.6849 4.0735 10.7324 3.97746L11.1643 3.83347V3.68948L12.0283 3.4015C12.0758 3.30545 12.1248 3.20956 12.1723 3.11351H12.6043C12.6518 3.01747 12.7007 2.92157 12.7482 2.82553H13.1802V2.68154H13.4682V2.53755L14.0442 2.39356V2.24957C14.2846 2.20162 14.5237 2.15353 14.7641 2.10558V1.96159L15.6281 1.8176V1.67361H16.06V1.52961H16.492V1.38562H16.924V1.24163H17.356V1.09764L18.6519 0.953652V0.809661H19.2278V0.66567H19.9478V0.521679L21.9637 0.377688V0.233697H23.1156C24.2258 -0.0774669 28.773 -0.0783309 29.8832 0.233697H31.3231V0.377688H32.475C34.0114 0.713667 35.5473 1.04965 37.0827 1.38562V1.52961H37.5147V1.67361H37.9466V1.8176H38.3786V1.96159H38.8106V2.10558H39.2426V2.24957H39.5305V2.39356H39.9625V2.53755H40.2505V2.68154H40.6825V2.82553L41.5464 3.11351V3.25751L42.4104 3.54549C42.4579 3.64153 42.5068 3.73743 42.5544 3.83347L43.1303 3.97746C43.1778 4.0735 43.2268 4.1694 43.2743 4.26544L43.8503 4.40943C43.8978 4.50547 43.9467 4.60137 43.9943 4.69741H44.2822C44.3787 4.8414 44.4738 4.9854 44.5702 5.12939H44.8582C44.9547 5.27338 45.0497 5.41737 45.1462 5.56136H45.4342L46.7301 7.00127L48.026 8.15319V8.44118L48.458 8.72916V9.01714L48.89 9.30512C48.9375 9.49706 48.9864 9.68914 49.0339 9.88108C49.1304 9.92903 49.2254 9.97713 49.3219 10.0251C49.3694 10.217 49.4184 10.4091 49.4659 10.601C49.5624 10.649 49.6574 10.6971 49.7539 10.745L50.1859 12.0409H50.3299C50.3774 12.2329 50.4263 12.425 50.4739 12.6169H50.6178C50.6654 12.9049 50.7143 13.1929 50.7618 13.4809C51.0541 14.2264 51.4357 15.0658 51.4818 16.0727ZM51.9138 51.0625H44.8582C44.2837 49.9416 44.5702 47.486 44.5702 45.8788V33.7836H27.0033C26.4101 32.6334 26.7053 28.52 26.7154 26.728C26.9329 26.6217 27.1283 26.4751 27.2913 26.296L39.2426 26.44L51.6258 26.296C52.2392 27.4951 51.9138 31.783 51.9138 33.6396V51.0625Z" fill="#38B000"/>
</svg>
