<svg width="38" height="60" viewBox="0 0 38 60" fill="none" xmlns="http://www.w3.org/2000/svg">
<path d="M0.0200005 15.19V16.45V15.19ZM37.12 40.64V19.72V9.63V2.6C37.12 1.18 35.96 0 34.52 0H2.6C1.16 0 0 1.18 0 2.6V9.63V22.01V56.95C0 58.39 1.16 59.55 2.59 59.55H34.51C35.94 59.55 37.1 58.38 37.1 56.95V49.85L37.12 40.64ZM35.73 48.78V51.64H1.41V7.93H35.73V39.25V48.78ZM35.73 56.96C35.73 57.62 35.19 58.16 34.53 58.16H2.61C1.95 58.16 1.41 57.62 1.41 56.96V53.03H35.73V56.96ZM35.73 2.6V6.53H1.41V2.6C1.41 1.94 1.95 1.4 2.61 1.4H34.53C35.19 1.4 35.73 1.94 35.73 2.6Z" fill="#1F1F1F"/>
<path d="M26.3396 3.26999H10.7996C10.4196 3.26999 10.0996 3.57999 10.0996 3.96999C10.0996 4.35999 10.4096 4.66999 10.7996 4.66999H26.3296C26.7096 4.66999 27.0296 4.35999 27.0296 3.96999C27.0296 3.57999 26.7196 3.26999 26.3396 3.26999Z" fill="#1F1F1F" stroke="#F2F2F2" stroke-width="0.4417" stroke-miterlimit="10"/>
<path d="M18.5698 57.62C19.6898 57.62 20.5898 56.71 20.5898 55.6C20.5898 54.49 19.6798 53.58 18.5698 53.58C17.4498 53.58 16.5498 54.49 16.5498 55.6C16.5498 56.71 17.4498 57.62 18.5698 57.62ZM18.5698 54.96C18.9198 54.96 19.1998 55.24 19.1998 55.59C19.1998 55.94 18.9198 56.22 18.5698 56.22C18.2198 56.22 17.9398 55.94 17.9398 55.59C17.9398 55.24 18.2198 54.96 18.5698 54.96Z" fill="#1F1F1F" stroke="#F2F2F2" stroke-width="0.4417" stroke-miterlimit="10"/>
<path d="M14.1002 26.21C11.6502 28.68 11.6502 32.68 14.1002 35.13C16.5402 37.57 20.5102 37.62 23.0202 35.13C25.4702 32.66 25.4702 28.66 23.0202 26.21C20.5902 23.77 16.6002 23.73 14.1002 26.21ZM21.6902 33.79C20.0102 35.46 17.1102 35.46 15.4302 33.79C13.7102 32.07 13.7102 29.27 15.4302 27.54C17.1702 25.81 19.9602 25.82 21.6902 27.54C23.4102 29.26 23.4102 32.07 21.6902 33.79Z" fill="#1F1F1F" stroke="#F2F2F2" stroke-width="0.4268" stroke-miterlimit="10"/>
<path d="M31.8501 27.83L29.9601 27.82C29.6801 26.68 29.2401 25.61 28.6401 24.62L29.9801 23.28C30.3501 22.91 30.3501 22.31 29.9801 21.94L27.2901 19.25C26.9201 18.88 26.3201 18.88 25.9501 19.25L24.6201 20.58C23.6201 19.97 22.5501 19.53 21.4201 19.25L21.4101 17.38C21.4101 16.86 20.9901 16.44 20.4701 16.44L16.6601 16.43C16.4101 16.43 16.1701 16.53 15.9901 16.71C15.8101 16.89 15.7101 17.13 15.7101 17.38V19.26C14.5801 19.54 13.5001 19.99 12.5101 20.59L11.1901 19.26C11.0101 19.08 10.7701 18.98 10.5201 18.98C10.2701 18.98 10.0301 19.08 9.85007 19.26L7.16007 21.95C6.79007 22.32 6.79007 22.92 7.16007 23.29L8.49007 24.62C7.90007 25.59 7.45007 26.68 7.16007 27.82L5.27007 27.83C4.75007 27.83 4.33008 28.25 4.33008 28.77V32.57C4.33008 33.09 4.75007 33.51 5.27007 33.51H7.15008C7.43008 34.64 7.87008 35.72 8.48008 36.72L7.16007 38.05C6.79007 38.42 6.80007 39.02 7.16007 39.38L9.84007 42.06C10.2101 42.43 10.8101 42.43 11.1701 42.06L12.4901 40.74C13.4801 41.34 14.5601 41.78 15.7101 42.07V43.94C15.7101 44.46 16.1301 44.88 16.6501 44.88H20.4501C20.9701 44.88 21.3901 44.46 21.3901 43.94V42.06C22.5301 41.78 23.6201 41.33 24.6001 40.74L25.9201 42.06C26.2901 42.43 26.8901 42.43 27.2601 42.06L29.9501 39.37C30.1301 39.19 30.2301 38.95 30.2301 38.7C30.2301 38.45 30.1301 38.21 29.9501 38.03L28.6301 36.71C29.2301 35.71 29.6701 34.63 29.9501 33.51H31.8301C32.3501 33.51 32.7701 33.09 32.7701 32.57V28.77C32.7901 28.25 32.3701 27.83 31.8501 27.83ZM30.9001 31.63H29.2001C28.7401 31.63 28.3501 31.96 28.2701 32.41C28.0201 33.82 27.4801 35.13 26.6601 36.31C26.4001 36.68 26.4501 37.19 26.7701 37.52L27.9701 38.72L26.6101 40.08L25.4201 38.88C25.0901 38.55 24.5801 38.51 24.2101 38.78C23.0701 39.59 21.7501 40.13 20.3101 40.38C19.8601 40.46 19.5301 40.85 19.5301 41.31V43.01H17.6201V41.32C17.6201 40.86 17.2901 40.47 16.8501 40.39C15.4001 40.13 14.0901 39.58 12.9301 38.77C12.5601 38.51 12.0501 38.55 11.7201 38.87L10.5201 40.07L9.17007 38.72L10.3701 37.51C10.6901 37.19 10.7301 36.68 10.4701 36.3C9.64008 35.12 9.10007 33.81 8.85007 32.4C8.77007 31.95 8.38007 31.62 7.92007 31.62H6.22008V29.7L7.92007 29.69C8.37007 29.69 8.76007 29.36 8.84007 28.92C9.10007 27.49 9.66008 26.15 10.4601 25.03C10.7301 24.66 10.6801 24.14 10.3601 23.82L9.15008 22.61L10.5001 21.26L11.7001 22.46C12.0201 22.78 12.5401 22.83 12.9101 22.57C14.0801 21.76 15.4001 21.21 16.8201 20.95C17.2701 20.87 17.5901 20.48 17.5901 20.02V18.32L19.5201 18.33L19.5301 20.03C19.5301 20.49 19.8601 20.88 20.3101 20.96C21.7101 21.21 23.0201 21.75 24.2001 22.58C24.5701 22.84 25.0801 22.8 25.4101 22.48L26.6201 21.27L27.9801 22.63L26.7701 23.84C26.4501 24.16 26.4001 24.67 26.6601 25.05C27.4601 26.2 28.0001 27.51 28.2701 28.95C28.3501 29.4 28.7401 29.72 29.1901 29.72L30.8901 29.73L30.9001 31.63Z" fill="#1F1F1F" stroke="#F2F2F2" stroke-width="0.4268" stroke-miterlimit="10"/>
</svg>
