<svg width="37" height="71" viewBox="0 0 37 71" fill="none" xmlns="http://www.w3.org/2000/svg">
<path d="M36.4 15.2C36.52 14.94 36.5 14.64 36.36 14.39L27.83 0.420002C27.67 0.160002 27.4 0 27.1 0C26.8 0 26.52 0.160002 26.37 0.420002L17.84 14.38C17.7 14.62 17.67 14.93 17.8 15.19L22.17 24.66V27.12C21.72 27.15 21.36 27.52 21.36 27.98V32.9C21.36 33.37 21.75 33.76 22.22 33.76H26.08V40.12C26.08 42.03 24.53 43.59 22.61 43.59H22.58C21.66 43.59 20.78 43.23 20.13 42.57C19.48 41.91 19.11 41.04 19.11 40.12V39.92C19.11 37.06 16.78 34.73 13.92 34.73C11.07 34.73 8.74 37.05 8.73 39.9L8.72 43.79H7.19C5.26 43.79 3.45 44.55 2.1 45.91C0.730002 47.28 0 49.09 0 51.02V63.6C0 67.57 3.24 70.8 7.21 70.8H7.22H11.91C15.88 70.8 19.12 67.55 19.11 63.58V50.99C19.11 47.02 15.87 43.79 11.9 43.79H11.89H10.44L10.45 39.9C10.46 38 12.02 36.45 13.92 36.45C15.83 36.45 17.39 38 17.39 39.92V40.12C17.39 41.5 17.94 42.81 18.92 43.79C19.9 44.77 21.21 45.32 22.59 45.32H22.62C25.48 45.32 27.81 42.99 27.81 40.13V33.77H32.01C32.48 33.77 32.87 33.38 32.87 32.91V27.99C32.87 27.53 32.51 27.16 32.06 27.13V24.67L36.4 15.2ZM3.29 47.14C4.33 46.1 5.71 45.53 7.16 45.53H8.67V52.22H1.68V51.01C1.69 49.55 2.27 48.17 3.29 47.14ZM11.9 69.07H7.19H7.18C4.16 69.07 1.7 66.61 1.7 63.59V53.95H17.37V63.58C17.36 66.59 14.92 69.07 11.9 69.07ZM11.87 45.52C11.88 45.52 11.88 45.52 11.87 45.52C13.34 45.52 14.72 46.1 15.76 47.12C16.8 48.16 17.37 49.54 17.37 50.99V52.21H10.42V45.52H11.87ZM23.88 27.13V25.35H30.31V27.13H23.88ZM27.09 13.5C28.04 13.5 28.82 14.28 28.82 15.23C28.82 16.18 28.04 16.96 27.09 16.96C26.14 16.96 25.36 16.18 25.36 15.23C25.36 14.28 26.14 13.5 27.09 13.5ZM26.23 3.93V11.89C24.73 12.28 23.64 13.63 23.64 15.24C23.64 17.15 25.19 18.69 27.09 18.69C28.99 18.69 30.54 17.14 30.54 15.24C30.54 13.63 29.43 12.28 27.95 11.89V3.93L34.65 14.9L30.62 23.62H23.57L19.54 14.9L26.23 3.93ZM31.12 32.04H23.06V28.85H31.12V32.04Z" fill="black"/>
</svg>
