<svg width="60" height="60" viewBox="0 0 60 60" fill="none" xmlns="http://www.w3.org/2000/svg">
<path d="M48.2931 41.0099C46.8265 39.5421 45.1128 38.3441 43.2306 37.4709C45.8849 35.3205 47.5783 32.0392 47.5783 28.3595C47.5783 21.8673 42.1642 16.5412 35.672 16.6408C29.2794 16.7404 24.1291 21.9494 24.1291 28.3595C24.1291 32.0392 25.8283 35.3205 28.4767 37.4709C26.5941 38.3435 24.8803 39.5416 23.4142 41.0099C20.215 44.215 18.3986 48.4455 18.2814 52.9572C18.2798 53.0197 18.2908 53.0819 18.3137 53.1402C18.3365 53.1984 18.3708 53.2515 18.4145 53.2962C18.4582 53.341 18.5104 53.3766 18.568 53.4009C18.6257 53.4252 18.6876 53.4377 18.7501 53.4376H22.0314C22.2833 53.4376 22.4943 53.2384 22.5001 52.9865C22.6115 49.588 23.9884 46.4064 26.4083 43.9923C27.6467 42.7474 29.1196 41.7605 30.7419 41.0886C32.3642 40.4168 34.1036 40.0734 35.8595 40.0783C39.4279 40.0783 42.7853 41.4669 45.3107 43.9923C47.7248 46.4064 49.1017 49.588 49.2189 52.9865C49.2248 53.2384 49.4357 53.4376 49.6876 53.4376H52.9689C53.0314 53.4377 53.0934 53.4252 53.151 53.4009C53.2087 53.3766 53.2609 53.341 53.3046 53.2962C53.3482 53.2515 53.3825 53.1984 53.4054 53.1402C53.4282 53.0819 53.4392 53.0197 53.4376 52.9572C53.3205 48.4455 51.5041 44.215 48.2931 41.0099ZM35.8595 35.8595C33.8556 35.8595 31.9689 35.0802 30.5568 33.6623C29.8481 32.9592 29.2883 32.1205 28.9108 31.1964C28.5333 30.2723 28.3458 29.2815 28.3595 28.2834C28.3771 26.3615 29.1447 24.5041 30.4865 23.1271C31.8927 21.6857 33.7736 20.883 35.7833 20.8595C37.7697 20.842 39.6974 21.6154 41.1154 23.0041C42.5685 24.4279 43.3654 26.3322 43.3654 28.3595C43.3654 30.3634 42.5861 32.2443 41.1681 33.6623C40.4724 34.3613 39.6451 34.9154 38.7339 35.2925C37.8227 35.6697 36.8457 35.8624 35.8595 35.8595ZM21.1818 29.9064C21.1291 29.3966 21.0998 28.881 21.0998 28.3595C21.0998 27.4279 21.1876 26.5197 21.3517 25.6349C21.3927 25.424 21.2814 25.2072 21.088 25.1193C20.2912 24.7619 19.5587 24.2697 18.9259 23.6486C18.1803 22.9256 17.5935 22.0551 17.2031 21.0926C16.8126 20.1302 16.6271 19.0969 16.6583 18.0587C16.7111 16.1779 17.4669 14.3908 18.7853 13.0431C20.2326 11.5607 22.1779 10.7521 24.2462 10.7755C26.1154 10.7931 27.9201 11.5138 29.2853 12.7912C29.7482 13.2248 30.1466 13.7052 30.4806 14.2209C30.5978 14.4025 30.8263 14.4787 31.0255 14.4084C32.0568 14.0509 33.1466 13.799 34.2658 13.6818C34.5939 13.6466 34.7814 13.2951 34.6349 13.0021C32.7306 9.23453 28.84 6.63297 24.34 6.56265C17.8419 6.46304 12.4279 11.7892 12.4279 18.2755C12.4279 21.9552 14.1212 25.2365 16.7755 27.3869C14.9123 28.2482 13.1955 29.4377 11.7072 30.9259C8.49624 34.131 6.67983 38.3615 6.56265 42.8791C6.56108 42.9416 6.57205 43.0038 6.59491 43.062C6.61776 43.1203 6.65204 43.1733 6.69573 43.2181C6.73941 43.2629 6.79162 43.2985 6.84927 43.3228C6.90691 43.347 6.96884 43.3595 7.0314 43.3595H10.3185C10.5705 43.3595 10.7814 43.1603 10.7873 42.9084C10.8986 39.5099 12.2755 36.3283 14.6955 33.9142C16.4181 32.1916 18.5275 30.9962 20.8302 30.4162C21.0587 30.3576 21.2111 30.1408 21.1818 29.9064Z" fill="black"/>
</svg>
