<?xml version="1.0" encoding="UTF-8"?>
<svg width="75px" height="23px" viewBox="0 0 75 23" version="1.1" xmlns="http://www.w3.org/2000/svg" xmlns:xlink="http://www.w3.org/1999/xlink">
    <!-- Generator: Sketch 52.6 (67491) - http://www.bohemiancoding.com/sketch -->
    <title>logo</title>
    <desc>Created with Sketch.</desc>
    <defs>
        <polygon id="path-1" points="0.00141637857 0.00969101124 15.8613323 0.00969101124 15.8613323 14.995455 0.00141637857 14.995455"></polygon>
        <polygon id="path-3" points="0 22.5810609 74.9797429 22.5810609 74.9797429 0.0324114088 0 0.0324114088"></polygon>
    </defs>
    <g id="Page-1" stroke="none" stroke-width="1" fill="none" fill-rule="evenodd">
        <g id="home-320" transform="translate(-15.000000, -20.000000)">
            <g id="menu">
                <g id="Group-8" transform="translate(15.000000, 20.000000)">
                    <g id="logo" transform="translate(0.000000, 0.000000)">
                        <path d="M36.7572828,22.5810545 C36.7005629,22.4209097 36.6577474,22.3066271 36.6194047,22.1908535 C35.1813105,17.8480488 33.7427625,13.5054062 32.3095949,9.16094857 C32.2643809,9.02384831 32.2096057,8.98177831 32.0654397,8.98190795 C27.6359669,8.98625108 23.2064942,8.98547321 18.776989,8.98547321 L18.5470624,8.98547321 C18.6195992,8.92285436 18.6612803,8.88535436 18.7045171,8.84976664 C19.5742772,8.13360415 20.2348217,7.26958081 20.5781558,6.18438202 C20.6094328,6.08555964 20.6588926,6.06676102 20.7514272,6.06679343 C25.2565482,6.0687057 29.7616368,6.06847882 34.2667254,6.06867329 C34.2934324,6.06867329 34.3201718,6.07113656 34.3622418,6.07321089 C35.1556731,8.47619274 35.9497202,10.8809572 36.7592275,13.3325238 C37.5675032,10.8846197 38.3610318,8.48141098 39.157769,6.06844641 L39.3711009,6.06844641 C44.0220732,6.06844641 48.6730132,6.06851124 53.3239855,6.06834918 C53.9775292,6.06831677 54.6310728,6.06802506 55.2845841,6.06523768 C55.3975702,6.06475151 55.5119501,6.06008427 55.6232509,6.04229041 C56.158428,5.95672429 56.4528533,5.68388505 56.5720624,5.15950086 C56.6629764,4.75947926 56.6689077,4.35547105 56.5896618,3.95298617 C56.4597245,3.29344641 56.0791497,2.97085566 55.4058675,2.96207217 C54.7146294,2.95309421 54.0231968,2.95711322 53.3318615,2.95708081 C42.5336441,2.95688634 31.7354268,2.95695117 20.9372094,2.95695117 L20.7013191,2.95695117 C20.438333,1.80012316 19.8257898,0.859576491 18.9293874,0.0399243734 L19.1719868,0.0399243734 C30.5644025,0.0399243734 41.9567859,0.039891962 53.3492016,0.0399567848 C54.0675681,0.0399567848 54.7862262,0.0273163354 55.5041713,0.0441054451 C56.2967275,0.0626123596 57.0399535,0.272735523 57.7114531,0.704909248 C58.4615179,1.18767718 58.9830499,1.85849611 59.2644134,2.6993777 C59.6770106,3.93253457 59.6800573,5.17706785 59.2351134,6.40170052 C58.8285123,7.52076923 58.0448693,8.28652118 56.9296575,8.70949006 C56.8897915,8.72459378 56.8506385,8.74164218 56.7926545,8.76536733 C56.8258438,8.81489196 56.851546,8.85842048 56.88211,8.89822169 C57.6746013,9.93013613 58.468616,10.9608838 59.2584497,11.9947753 C59.3183459,12.0731461 59.3797656,12.0990428 59.4746662,12.0987511 C60.4523887,12.0958341 61.4301113,12.0969685 62.4078338,12.0969685 L62.5958524,12.0969685 L62.5958524,15.0065082 C62.5430218,15.0090039 62.4907746,15.0136711 62.4385274,15.0136711 C60.9800465,15.0140601 59.5215655,15.0121478 58.0630521,15.0173012 C57.9390784,15.017755 57.869005,14.9743561 57.7973109,14.8807844 C56.3329635,12.9696456 54.8646294,11.0615212 53.4012219,9.14960458 C53.3111506,9.03191876 53.2219544,8.98135696 53.0684864,8.98155143 C49.2008006,8.98651037 45.3330823,8.9863159 41.4653965,8.98223207 C41.319772,8.98207001 41.2558892,9.01626404 41.2070452,9.16441659 C39.7542686,13.5704235 38.2950097,17.9743237 36.8363667,22.3784183 C36.8185728,22.4321889 36.7953338,22.4841119 36.7572828,22.5810545" id="Fill-1" fill="#000000"></path>
                        <path d="M7.19196845,2.95694468 L7.19196845,0.0399178911 C7.24829948,0.0399178911 7.3051815,0.0399178911 7.36203111,0.0399178911 C9.7980726,0.0390103717 12.2341465,0.0395613656 14.6702204,0.0363202247 C15.3828825,0.0353478825 16.0689347,0.156858254 16.712204,0.469725583 C17.6726513,0.936806396 18.337312,1.68162057 18.6807109,2.68809205 C19.1006331,3.9189153 19.1015406,5.16442092 18.6601945,6.39005834 C18.2546629,7.51628997 17.4683621,8.28609334 16.3472515,8.71090968 C16.3074827,8.72598099 16.2686214,8.74332109 16.2096651,8.7677917 C16.3018755,8.89101988 16.386048,9.00598315 16.4727809,9.11893691 C17.1960415,10.0609745 17.9217653,11.0010998 18.6406828,11.9463786 C18.7243366,12.0563829 18.806694,12.1004948 18.9470354,12.1003652 C23.1656072,12.0961841 27.3842113,12.0979667 31.6027831,12.0930726 C31.7597515,12.0928781 31.8222407,12.1405229 31.8692048,12.2878652 C32.141331,13.1419706 32.4251901,13.9923487 32.7047385,14.8440882 C32.7212684,14.8944555 32.7348163,14.9457952 32.7548142,15.0139888 L32.5654019,15.0139888 C27.5420225,15.0139888 22.5186106,15.0134702 17.4951988,15.0169382 C17.3677571,15.0170354 17.2907476,14.9761322 17.2148725,14.877083 C15.8756979,13.1285523 14.5332174,11.3825497 13.1908989,9.63638505 C13.0429732,9.44399092 12.894529,9.25182368 12.7396348,9.06513397 C12.7071586,9.02598099 12.6451232,8.98896716 12.5966033,8.9888051 C11.4247688,8.98459162 10.2529019,8.98553155 9.06619058,8.98553155 C8.40428479,10.9936776 7.74312446,12.9995873 7.08108902,15.0082519 L4.01218237,15.0082519 C4.13434097,14.6332195 4.25270743,14.265901 4.37360199,13.8994252 C5.21814607,11.3391184 6.06424589,8.77933016 6.90477096,6.21769447 C6.94444252,6.0967675 6.99753241,6.06532844 7.1193669,6.06562014 C8.92886344,6.06973639 10.7383924,6.06954192 12.5478889,6.06792135 C13.298602,6.06724071 14.049315,6.06224935 14.7999957,6.0564153 C15.5368691,6.0507433 15.9397429,5.6862446 16.0320182,4.95433016 C16.0811863,4.56442092 16.0784961,4.17749352 15.9736128,3.79721046 C15.835605,3.29674589 15.5215061,3.02299914 15.004933,2.9842675 C14.6556353,2.95804667 14.3033557,2.96945549 13.9524049,2.96871003 C11.7487532,2.96404278 9.54506914,2.96070441 7.34138505,2.95694468 C7.29422645,2.95687986 7.24706785,2.95694468 7.19196845,2.95694468" id="Fill-3" fill="#000000"></path>
                        <g id="Group-7" transform="translate(59.118410, 0.022720)">
                            <mask id="mask-2" fill="white">
                                <use xlink:href="#path-1"></use>
                            </mask>
                            <g id="Clip-6"></g>
                            <path d="M9.88290946,14.9753771 L9.88290946,12.0800335 C9.94186582,12.0772785 9.99903954,12.0723196 10.0561809,12.0722548 C10.574731,12.0716713 11.0932811,12.0731947 11.6118312,12.0709259 C11.7194047,12.0704721 11.8282422,12.065027 11.9342599,12.0479462 C12.4741044,11.9610512 12.7682055,11.683253 12.885081,11.1479786 C12.9738235,10.7417016 12.9767405,10.3330586 12.8922439,9.92564715 C12.7642189,9.30850151 12.3944695,8.99346262 11.7625119,8.96895959 C11.5036096,8.95894447 11.2440266,8.96568604 10.9847677,8.96562122 C7.38210998,8.96458405 3.77945225,8.96367653 0.176826923,8.9627366 C0.13465968,8.9627366 0.0925572602,8.9627366 0.00141637857,8.9627366 C0.501880942,8.56125648 0.926243518,8.14561258 1.2784583,7.66119166 C1.63407627,7.17216832 1.90078976,6.63864412 2.07911733,6.04570981 L2.2727755,6.04570981 C3.88242329,6.04570981 5.4921035,6.04807584 7.1017513,6.04489952 C8.17100367,6.04276037 9.24025605,6.03349071 10.309476,6.02600367 C11.0118961,6.02107714 11.383266,5.71576167 11.5097353,5.0277971 C11.5888191,4.5976653 11.5787392,4.16753349 11.4606968,3.74355985 C11.3294631,3.27223315 11.0064185,3.02600367 10.532272,2.96312554 C10.436237,2.95038786 10.3385166,2.94633643 10.2415093,2.94614196 C7.611129,2.94153954 4.9807487,2.93797429 2.35036841,2.93424697 C2.29144447,2.93414974 2.23252053,2.93421456 2.16435933,2.93421456 C2.02667567,2.3610188 1.81713591,1.82509615 1.50533816,1.3328965 C1.19824006,0.848086646 0.843853717,0.402559421 0.348542567,0.0172201815 L0.572278522,0.0172201815 C3.13799806,0.0171877701 5.70378241,0.0177063526 8.26950194,0.0168312446 C8.9500443,0.0166367761 9.63058665,0.0119695333 10.311129,0.00970073466 C11.6763299,0.00519554883 12.8297548,0.472535653 13.6810404,1.56674481 C14.3200637,2.38821197 14.5518377,3.34911301 14.5667146,4.3740914 C14.5782854,5.17222234 14.4684432,5.94581785 14.1316562,6.67831569 C14.1170711,6.71001404 14.1398887,6.78514369 14.1696424,6.80728068 C15.4095084,7.73000108 15.8534475,9.01277982 15.8612262,10.5011765 C15.8655045,11.3131471 15.7409799,12.0960447 15.3658827,12.8222548 C14.6986938,14.1137846 13.6066238,14.8080694 12.1853187,14.9508092 C11.4414769,15.0255175 10.6857401,14.9817621 9.93531871,14.9908373 C9.92057152,14.9909994 9.90575951,14.9823455 9.88290946,14.9753771" id="Fill-5" fill="#000000" mask="url(#mask-2)"></path>
                        </g>
                        <path d="M53.8182822,15.0080996 L40.8255856,15.0080996 C40.9490082,14.6288537 41.0682174,14.2601091 41.1891119,13.8919155 C41.3693842,13.3428987 41.5535458,12.7951459 41.7294101,12.2447353 C41.7637986,12.137097 41.8073271,12.0936657 41.9290644,12.0938278 C45.1160782,12.097782 48.3031245,12.0964207 51.4901707,12.1005694 C51.5592394,12.1006666 51.6540428,12.1351523 51.6934875,12.1867513 C52.3890687,13.0961506 53.0779408,14.0107033 53.7678825,14.9244134 C53.7830186,14.9444436 53.7941033,14.9675854 53.8182822,15.0080996" id="Fill-8" fill="#000000"></path>
                        <mask id="mask-4" fill="white">
                            <use xlink:href="#path-3"></use>
                        </mask>
                        <g id="Clip-11"></g>
                        <polygon id="Fill-10" fill="#000000" mask="url(#mask-4)" points="64.3985199 15.1039434 67.5224935 15.1039434 67.5224935 11.9801642 64.3985199 11.9801642"></polygon>
                        <polygon id="Fill-12" fill="#000000" mask="url(#mask-4)" points="3.01565471 2.94833621 5.91258643 2.94833621 5.91258643 0.051372083 3.01565471 0.051372083"></polygon>
                        <polygon id="Fill-13" fill="#000000" mask="url(#mask-4)" points="67.2875756 17.9871651 69.2769879 17.9871651 69.2769879 15.9978825 67.2875756 15.9978825"></polygon>
                        <polygon id="Fill-14" fill="#000000" mask="url(#mask-4)" points="0 2.36062014 1.73005618 2.36062014 1.73005618 0.630499136 0 0.630499136"></polygon>
                        <polygon id="Fill-15" fill="#000000" mask="url(#mask-4)" points="64.7256482 18.7283168 66.1963483 18.7283168 66.1963483 17.2250756 64.7256482 17.2250756"></polygon>
                    </g>
                </g>
            </g>
        </g>
    </g>
</svg>