<svg width="60" height="60" viewBox="0 0 60 60" fill="none" xmlns="http://www.w3.org/2000/svg">
<path d="M30 32.5C29.2389 32.4911 28.4933 32.7156 27.8636 33.1433C27.2339 33.5709 26.7504 34.1812 26.478 34.892C26.2057 35.6028 26.1577 36.38 26.3404 37.1189C26.5231 37.8578 26.9278 38.523 27.5 39.025V42.5C27.5 43.163 27.7634 43.7989 28.2322 44.2678C28.7011 44.7366 29.337 45 30 45C30.663 45 31.2989 44.7366 31.7678 44.2678C32.2366 43.7989 32.5 43.163 32.5 42.5V39.025C33.0722 38.523 33.4769 37.8578 33.6596 37.1189C33.8423 36.38 33.7943 35.6028 33.522 34.892C33.2496 34.1812 32.7661 33.5709 32.1364 33.1433C31.5067 32.7156 30.7611 32.4911 30 32.5ZM42.5 22.5V17.5C42.5 14.1848 41.183 11.0054 38.8388 8.66117C36.4946 6.31696 33.3152 5 30 5C26.6848 5 23.5054 6.31696 21.1612 8.66117C18.817 11.0054 17.5 14.1848 17.5 17.5V22.5C15.5109 22.5 13.6032 23.2902 12.1967 24.6967C10.7902 26.1032 10 28.0109 10 30V47.5C10 49.4891 10.7902 51.3968 12.1967 52.8033C13.6032 54.2098 15.5109 55 17.5 55H42.5C44.4891 55 46.3968 54.2098 47.8033 52.8033C49.2098 51.3968 50 49.4891 50 47.5V30C50 28.0109 49.2098 26.1032 47.8033 24.6967C46.3968 23.2902 44.4891 22.5 42.5 22.5ZM22.5 17.5C22.5 15.5109 23.2902 13.6032 24.6967 12.1967C26.1032 10.7902 28.0109 10 30 10C31.9891 10 33.8968 10.7902 35.3033 12.1967C36.7098 13.6032 37.5 15.5109 37.5 17.5V22.5H22.5V17.5ZM45 47.5C45 48.163 44.7366 48.7989 44.2678 49.2678C43.7989 49.7366 43.163 50 42.5 50H17.5C16.837 50 16.2011 49.7366 15.7322 49.2678C15.2634 48.7989 15 48.163 15 47.5V30C15 29.337 15.2634 28.7011 15.7322 28.2322C16.2011 27.7634 16.837 27.5 17.5 27.5H42.5C43.163 27.5 43.7989 27.7634 44.2678 28.2322C44.7366 28.7011 45 29.337 45 30V47.5Z" fill="black"/>
</svg>
